<svg width="48" height="47" viewBox="0 0 48 47" fill="none" xmlns="http://www.w3.org/2000/svg">
<path d="M28.4475 35.8211C30.4177 28.9038 29.7088 25.417 26.2549 24.7471C26.7824 27.0958 27.3759 29.5092 24.8535 31.1396C23.5346 31.9952 22.4877 31.6643 20.1467 29.9047C19.0668 32.0759 19.4295 34.2391 19.9324 36.5556C16.5774 35.9825 13.9313 34.6184 12.7031 31.4463C11.4336 28.5568 12.1343 25.2071 14.4424 23.0278C15.2502 22.2207 16.124 21.4862 17.0555 20.8243C20.8309 18.0478 21.5645 15.3519 19.5697 11.179C19.479 10.9368 19.4048 10.6947 19.3553 10.4445C23.5511 11.066 27.5243 12.7206 30.904 15.2389C38.2652 21.131 37.3749 31.7288 29.2471 35.6193C28.9669 35.6354 28.7031 35.7 28.4475 35.8211V35.8211Z" fill="#EE4854"/>
</svg>
