<svg width="48" height="48" viewBox="0 0 48 48" fill="none" xmlns="http://www.w3.org/2000/svg">
<path d="M22.9082 10.9512C23.5694 10.5727 24.4306 10.571 25.0913 10.9512C28.4149 12.8292 31.7395 14.7043 35.0626 16.5834C35.6876 16.9355 36.1057 17.6311 36.0993 18.3513V29.6502C36.104 30.4002 35.6446 31.1124 34.9852 31.4565C31.6725 33.3242 28.3615 35.1941 25.0494 37.0618C24.3745 37.4477 23.496 37.4179 22.8422 37.0004C21.849 36.4247 20.8542 35.8518 19.8609 35.2767C19.658 35.1557 19.4292 35.0594 19.2859 34.8626C19.4126 34.6918 19.6391 34.6705 19.8231 34.596C20.2377 34.4641 20.6184 34.2525 20.9993 34.0472C21.0956 33.9813 21.2132 34.0066 21.3055 34.0655C22.1547 34.5525 22.9965 35.0536 23.8486 35.5358C24.0304 35.6408 24.2144 35.5015 24.3698 35.4148C27.6206 33.5776 30.8754 31.7472 34.1256 29.9094C34.246 29.8514 34.3126 29.7236 34.3028 29.5917C34.3051 25.8644 34.3034 22.1365 34.3039 18.4092C34.3177 18.2595 34.2311 18.1219 34.0958 18.0607C30.7946 16.2015 27.4951 14.3396 24.1944 12.48C24.1372 12.4407 24.0695 12.4196 24.0001 12.4195C23.9307 12.4194 23.8629 12.4403 23.8056 12.4794C20.5049 14.3396 17.206 16.2033 13.9054 18.0623C13.7705 18.1236 13.68 18.259 13.696 18.4092C13.6966 22.1365 13.696 25.8644 13.696 29.5923C13.6903 29.6566 13.7045 29.7212 13.7366 29.7773C13.7686 29.8334 13.8172 29.8783 13.8756 29.906C14.7563 30.4054 15.6383 30.9014 16.5196 31.3991C17.0162 31.6664 17.6258 31.8252 18.1729 31.6204C18.6556 31.4473 18.994 30.9547 18.9848 30.4421C18.9893 26.7366 18.9825 23.0305 18.9882 19.3255C18.9761 19.161 19.1322 19.0251 19.2921 19.0406C19.7153 19.0378 20.1391 19.0349 20.5623 19.0418C20.739 19.0378 20.8605 19.2149 20.8387 19.3806C20.837 23.1096 20.8432 26.8387 20.8358 30.5676C20.837 31.5615 20.4287 32.6428 19.5094 33.1291C18.377 33.7158 16.9772 33.5913 15.8584 33.0288C14.8899 32.5454 13.9656 31.9749 13.0142 31.457C12.3531 31.1148 11.896 30.3997 11.9007 29.6503V18.3513C11.8937 17.6162 12.3284 16.908 12.9729 16.561C16.285 14.6918 19.5966 12.8212 22.9082 10.9512Z" fill="#8CC84B"/>
<path d="M25.7976 18.778C27.2422 18.685 28.7887 18.7229 30.0886 19.4345C31.095 19.9799 31.653 21.1244 31.6708 22.2425C31.6426 22.3934 31.485 22.4766 31.341 22.4662C30.9219 22.4656 30.5027 22.4719 30.0835 22.4634C29.9057 22.4702 29.8024 22.3063 29.7801 22.1491C29.6597 21.6141 29.3679 21.0842 28.8644 20.8262C28.0914 20.4392 27.1951 20.4586 26.3522 20.4667C25.7369 20.4994 25.0752 20.5527 24.5539 20.9145C24.1536 21.1886 24.0321 21.7419 24.1749 22.1876C24.3096 22.5075 24.6789 22.6108 24.9811 22.7059C26.722 23.1612 28.5668 23.1159 30.2744 23.7151C30.9814 23.9594 31.673 24.4343 31.915 25.1745C32.2316 26.1666 32.0928 27.3524 31.387 28.1489C30.8146 28.8043 29.9809 29.161 29.1494 29.3548C28.0432 29.6014 26.8953 29.6077 25.7719 29.4982C24.7156 29.3778 23.6164 29.1003 22.8009 28.3805C22.1036 27.7751 21.763 26.8317 21.7968 25.9212C21.8049 25.7674 21.958 25.6602 22.1053 25.6728C22.5274 25.6694 22.9495 25.6683 23.3715 25.6734C23.5401 25.6613 23.6651 25.807 23.6737 25.9659C23.7516 26.4756 23.9432 27.0106 24.3877 27.3128C25.2455 27.8663 26.3218 27.8284 27.304 27.8438C28.1178 27.8078 29.0312 27.7968 29.6953 27.259C30.0456 26.9522 30.1495 26.439 30.0548 25.9974C29.9522 25.6247 29.5622 25.451 29.2273 25.3374C27.5088 24.7937 25.6434 24.991 23.9415 24.3762C23.2505 24.1321 22.5824 23.6704 22.3169 22.9606C21.9465 21.9559 22.1162 20.7133 22.8961 19.9437C23.6564 19.1782 24.7541 18.8834 25.7976 18.7779V18.778Z" fill="#8CC84B"/>
</svg>
