<svg width="48" height="48" viewBox="0 0 48 48" fill="none" xmlns="http://www.w3.org/2000/svg">
<path d="M12.6791 22.0352C12.6272 22.0352 12.6142 22.0092 12.6402 21.9703L12.9128 21.6197C12.9388 21.5808 13.0037 21.5548 13.0557 21.5548H17.6908C17.7427 21.5548 17.7557 21.5938 17.7298 21.6327L17.509 21.9703C17.4831 22.0092 17.4181 22.0482 17.3792 22.0482L12.6791 22.0352ZM10.7186 23.2297C10.6667 23.2297 10.6537 23.2037 10.6797 23.1648L10.9523 22.8142C10.9783 22.7753 11.0432 22.7493 11.0951 22.7493H17.0157C17.0676 22.7493 17.0936 22.7882 17.0806 22.8272L16.9767 23.1388C16.9637 23.1907 16.9118 23.2167 16.8599 23.2167L10.7186 23.2297ZM13.8606 24.4242C13.8087 24.4242 13.7957 24.3852 13.8217 24.3463L14.0035 24.0217C14.0294 23.9827 14.0814 23.9438 14.1333 23.9438H16.73C16.782 23.9438 16.8079 23.9827 16.8079 24.0347L16.782 24.3463C16.782 24.3982 16.73 24.4372 16.6911 24.4372L13.8606 24.4242ZM27.3376 21.8015C26.5196 22.0092 25.9613 22.165 25.1564 22.3728C24.9616 22.4247 24.9486 22.4377 24.7798 22.2429C24.5851 22.0222 24.4423 21.8794 24.1696 21.7496C23.3516 21.3471 22.5596 21.4639 21.8196 21.9443C20.9367 22.5156 20.4823 23.3595 20.4953 24.4112C20.5082 25.4499 21.2223 26.3068 22.248 26.4496C23.1309 26.5665 23.871 26.2549 24.4553 25.5927C24.5721 25.4499 24.676 25.2941 24.8058 25.1123H22.3C22.0273 25.1123 21.9624 24.9435 22.0533 24.7228C22.2221 24.3203 22.5337 23.6452 22.7155 23.3076C22.7544 23.2297 22.8453 23.0999 23.04 23.0999H27.7661C27.7401 23.4504 27.7401 23.801 27.6882 24.1515C27.5453 25.0863 27.1948 25.9433 26.6235 26.6963C25.6887 27.9297 24.4682 28.6958 22.9232 28.9035C21.6508 29.0723 20.4693 28.8256 19.4306 28.0466C18.4698 27.3195 17.9245 26.3587 17.7817 25.1642C17.6129 23.749 18.0284 22.4766 18.8853 21.3601C19.8071 20.1526 21.0276 19.3866 22.5207 19.1139C23.7412 18.8932 24.9097 19.036 25.9613 19.7501C26.6495 20.2045 27.1429 20.8277 27.4674 21.5808C27.5453 21.6976 27.4934 21.7625 27.3376 21.8015Z" fill="#00ACD7"/>
<path d="M31.6352 28.9814C30.4537 28.9555 29.376 28.6179 28.4672 27.8389C27.7012 27.1767 27.2208 26.3328 27.065 25.333C26.8313 23.8659 27.2337 22.5675 28.1166 21.412C29.0644 20.1656 30.207 19.5164 31.752 19.2437C33.0764 19.01 34.3228 19.1399 35.4523 19.9059C36.478 20.607 37.1142 21.5548 37.283 22.8012C37.5037 24.554 36.9974 25.9822 35.7899 27.2027C34.933 28.0726 33.8813 28.6179 32.6739 28.8646C32.3233 28.9295 31.9727 28.9425 31.6352 28.9814V28.9814ZM34.7253 23.7361C34.7123 23.5673 34.7123 23.4374 34.6863 23.3076C34.4526 22.0222 33.2711 21.2952 32.0377 21.5808C30.8302 21.8534 30.0512 22.6195 29.7655 23.8399C29.5318 24.8527 30.0252 25.8784 30.96 26.2938C31.6741 26.6054 32.3882 26.5665 33.0764 26.2159C34.1021 25.6836 34.6603 24.8527 34.7253 23.7361V23.7361Z" fill="#00ACD7"/>
</svg>
