<svg width="48" height="48" viewBox="0 0 48 48" fill="none" xmlns="http://www.w3.org/2000/svg">
<path d="M36.8356 16.9245C36.8452 16.9596 36.85 16.9958 36.8501 17.0322V22.6897C36.8501 22.7624 36.8309 22.8337 36.7943 22.8965C36.7577 22.9593 36.705 23.0115 36.6417 23.0476L31.8667 25.7815V31.2002C31.8667 31.3477 31.7879 31.4838 31.6593 31.5581L21.692 37.264C21.6692 37.2769 21.6443 37.2852 21.6194 37.2939C21.6101 37.297 21.6012 37.3027 21.5914 37.3053C21.5217 37.3235 21.4485 37.3235 21.3788 37.3053C21.3674 37.3022 21.357 37.296 21.3461 37.2919C21.3233 37.2836 21.2995 37.2764 21.2777 37.264L11.3124 31.5581C11.2491 31.5219 11.1965 31.4698 11.1599 31.407C11.1233 31.3441 11.1041 31.2728 11.104 31.2002V14.2277C11.104 14.1906 11.1092 14.1545 11.1185 14.1194C11.1216 14.1076 11.1289 14.0968 11.133 14.0849C11.1408 14.0632 11.1481 14.0411 11.1595 14.021C11.1673 14.0076 11.1787 13.9967 11.188 13.9844C11.1999 13.9679 11.2108 13.9508 11.2248 13.9364C11.2367 13.9245 11.2523 13.9158 11.2658 13.9055C11.2808 13.8931 11.2943 13.8797 11.3114 13.8699H11.3119L16.2948 11.0169C16.3579 10.9808 16.4294 10.9618 16.5022 10.9618C16.575 10.9618 16.6465 10.9808 16.7096 11.0169L21.6925 13.8699H21.6935C21.7101 13.8802 21.7241 13.8931 21.7392 13.9049C21.7527 13.9153 21.7677 13.9245 21.7796 13.9359C21.7941 13.9508 21.8045 13.9679 21.8169 13.9844C21.8258 13.9967 21.8377 14.0076 21.8449 14.021C21.8569 14.0416 21.8636 14.0632 21.8719 14.0849C21.8761 14.0968 21.8833 14.1076 21.8864 14.12C21.896 14.1551 21.9009 14.1913 21.9009 14.2277V24.8286L26.0532 22.451V17.0317C26.0532 16.9956 26.0584 16.959 26.0677 16.9245C26.0713 16.9121 26.0781 16.9013 26.0822 16.8894C26.0905 16.8678 26.0978 16.8456 26.1092 16.8255C26.117 16.8121 26.1284 16.8012 26.1372 16.7889C26.1496 16.7724 26.16 16.7553 26.1745 16.7409C26.1864 16.7291 26.2015 16.7203 26.215 16.71C26.2305 16.6976 26.244 16.6842 26.2606 16.6744H26.2611L31.2445 13.8214C31.3076 13.7853 31.3791 13.7662 31.4519 13.7662C31.5247 13.7662 31.5962 13.7853 31.6593 13.8214L36.6422 16.6744C36.6598 16.6847 36.6733 16.6976 36.6889 16.7095C36.7018 16.7198 36.7169 16.7291 36.7288 16.7404C36.7433 16.7553 36.7537 16.7724 36.7661 16.7889C36.7755 16.8012 36.7869 16.8121 36.7941 16.8255C36.8061 16.8456 36.8128 16.8678 36.8211 16.8894C36.8258 16.9013 36.8325 16.9121 36.8356 16.9245V16.9245ZM36.0195 22.451V17.7464L34.2757 18.7447L31.8667 20.124V24.8286L36.02 22.451H36.0195ZM31.0366 30.9615V26.2538L28.667 27.5996L21.9004 31.44V36.192L31.0366 30.9615ZM11.9347 14.9419V30.9615L21.0698 36.1915V31.4405L16.2974 28.7546L16.2958 28.7536L16.2938 28.7525C16.2777 28.7432 16.2642 28.7298 16.2492 28.7185C16.2362 28.7082 16.2212 28.6999 16.2098 28.6886L16.2087 28.687C16.1953 28.6741 16.1859 28.6582 16.1745 28.6437C16.1641 28.6298 16.1517 28.6179 16.1434 28.6035L16.1429 28.602C16.1336 28.5865 16.1279 28.5679 16.1211 28.5504C16.1144 28.5349 16.1056 28.5205 16.1014 28.504V28.5035C16.0962 28.4839 16.0952 28.4633 16.0931 28.4431C16.091 28.4277 16.0869 28.4122 16.0869 28.3967V17.3194L13.6784 15.9396L11.9347 14.9424V14.9419ZM16.5027 11.8512L12.351 14.2277L16.5017 16.6043L20.6529 14.2272L16.5017 11.8512H16.5027ZM18.6618 26.6828L21.0703 25.304V14.9419L19.3265 15.9401L16.9175 17.3194V27.6816L18.6618 26.6828ZM31.4519 14.6557L27.3007 17.0322L31.4519 19.4088L35.6026 17.0317L31.4519 14.6557ZM31.0366 20.124L28.6276 18.7447L26.8838 17.7464V22.451L29.2923 23.8298L31.0366 24.8286V20.124ZM21.4846 30.7258L27.5735 27.2691L30.6171 25.5417L26.469 23.1667L21.693 25.9011L17.3401 28.3931L21.4846 30.7258Z" fill="#FF2D20"/>
</svg>
