<svg width="48" height="48" viewBox="0 0 48 48" fill="none" xmlns="http://www.w3.org/2000/svg">
<path d="M16.9589 20.1706H21.9884V20.5684H17.4199V23.5626H21.716V23.9605H17.4199V27.2479H22.0408V27.6457H16.9589V20.1706ZM22.439 20.1706H22.9734L25.3415 23.458L27.762 20.1706L31.0542 15.9948L25.6454 23.8034L28.4326 27.6457H27.8772L25.3415 24.1489L22.7953 27.6457H22.2504L25.0586 23.8034L22.439 20.1706ZM28.6317 20.5684V20.1706H34.3633V20.5684H31.7228V27.6457H31.2617V20.5684H28.6317Z" fill="black"/>
<path d="M10.6667 20.1705H11.243L19.1899 32.0052L15.9058 27.6457L11.1487 20.7359L11.1277 27.6457H10.6667V20.1705Z" fill="black"/>
<path d="M34.3169 27.1278C34.4122 27.1278 34.4817 27.0552 34.4817 26.9613C34.4817 26.8675 34.4122 26.7948 34.3169 26.7948C34.2227 26.7948 34.152 26.8675 34.152 26.9613C34.152 27.0552 34.2227 27.1278 34.3169 27.1278ZM34.7699 26.6898C34.7699 26.9669 34.9706 27.148 35.2633 27.148C35.5751 27.148 35.7634 26.9613 35.7634 26.6373V25.4964H35.5123V26.6362C35.5123 26.8161 35.4214 26.9122 35.2611 26.9122C35.1175 26.9122 35.02 26.8228 35.0166 26.6898H34.7699ZM36.092 26.6753C36.1099 26.9636 36.351 27.148 36.7099 27.148C37.0934 27.148 37.3334 26.9546 37.3334 26.6462C37.3334 26.4037 37.1965 26.2696 36.8646 26.1925L36.6863 26.149C36.4755 26.0998 36.3903 26.0339 36.3903 25.9188C36.3903 25.7735 36.5226 25.6785 36.7211 25.6785C36.9095 25.6785 37.0396 25.7713 37.0631 25.9199H37.3076C37.293 25.6484 37.053 25.4573 36.7244 25.4573C36.3712 25.4573 36.1357 25.6484 36.1357 25.9355C36.1357 26.1724 36.2692 26.3132 36.5619 26.3814L36.7704 26.4317C36.9846 26.482 37.0788 26.5557 37.0788 26.6786C37.0788 26.8217 36.9308 26.9256 36.7289 26.9256C36.5125 26.9256 36.3622 26.8284 36.3409 26.6753H36.092Z" fill="black"/>
</svg>
