<svg width="48" height="47" viewBox="0 0 48 47" fill="none" xmlns="http://www.w3.org/2000/svg">
<path d="M24 25.802C25.2985 25.802 26.351 24.7714 26.351 23.5C26.351 22.2286 25.2985 21.198 24 21.198C22.7016 21.198 21.649 22.2286 21.649 23.5C21.649 24.7714 22.7016 25.802 24 25.802Z" fill="#61DAFB"/>
<path fill-rule="evenodd" clip-rule="evenodd" d="M12.9457 22.2888C12.4125 22.76 12.2373 23.1709 12.2373 23.5C12.2373 23.8291 12.4125 24.24 12.9457 24.7113C13.4785 25.1822 14.2975 25.6447 15.3824 26.0503C17.5461 26.8593 20.5926 27.377 24 27.377C27.4074 27.377 30.454 26.8593 32.6177 26.0503C33.7025 25.6447 34.5216 25.1822 35.0543 24.7113C35.5875 24.24 35.7627 23.8291 35.7627 23.5C35.7627 23.1709 35.5875 22.76 35.0543 22.2888C34.5216 21.8178 33.7025 21.3553 32.6177 20.9497C30.454 20.1408 27.4074 19.623 24 19.623C20.5926 19.623 17.5461 20.1408 15.3824 20.9497C14.2975 21.3553 13.4785 21.8178 12.9457 22.2888ZM14.7772 19.3804C17.1793 18.4824 20.4403 17.9444 24 17.9444C27.5598 17.9444 30.8207 18.4824 33.2228 19.3804C34.4208 19.8283 35.4492 20.3821 36.1932 21.0397C36.9367 21.6969 37.4675 22.5268 37.4675 23.5C37.4675 24.4733 36.9367 25.3031 36.1932 25.9604C35.4492 26.6179 34.4208 27.1717 33.2228 27.6196C30.8207 28.5176 27.5598 29.0556 24 29.0556C20.4403 29.0556 17.1793 28.5176 14.7772 27.6196C13.5792 27.1717 12.5508 26.6179 11.8069 25.9604C11.0633 25.3031 10.5325 24.4733 10.5325 23.5C10.5325 22.5268 11.0633 21.6969 11.8069 21.0397C12.5508 20.3821 13.5792 19.8283 14.7772 19.3804Z" fill="#61DAFB"/>
<path fill-rule="evenodd" clip-rule="evenodd" d="M19.551 13.5223C18.8685 13.3061 18.4151 13.3618 18.1204 13.5284C17.8257 13.695 17.5497 14.0516 17.3997 14.7385C17.2496 15.4254 17.2501 16.3505 17.4337 17.4725C17.7998 19.7105 18.8647 22.5517 20.5678 25.4403C22.271 28.3288 24.2515 30.6523 26.0478 32.0819C26.9484 32.7985 27.7664 33.2615 28.449 33.4777C29.1315 33.6939 29.5849 33.6382 29.8796 33.4716C30.1743 33.3049 30.4503 32.9484 30.6003 32.2615C30.7504 31.5746 30.7499 30.6495 30.5663 29.5274C30.2002 27.2895 29.1353 24.4483 27.4322 21.5597C25.729 18.6712 23.7485 16.3476 21.9522 14.9181C21.0516 14.2014 20.2336 13.7385 19.551 13.5223ZM23.0268 13.6185C25.0231 15.2072 27.1302 17.7045 28.9106 20.7239C30.691 23.7434 31.8461 26.7788 32.2531 29.266C32.4561 30.5066 32.4805 31.6561 32.2708 32.6161C32.0611 33.5762 31.5927 34.4386 30.7355 34.9232C29.8783 35.4078 28.8813 35.3737 27.9274 35.0715C26.9735 34.7694 25.9689 34.1739 24.9732 33.3815C22.9769 31.7928 20.8698 29.2955 19.0894 26.276C17.309 23.2566 16.1539 20.2212 15.7469 17.734C15.5439 16.4934 15.5195 15.3438 15.7292 14.3839C15.9389 13.4238 16.4073 12.5614 17.2645 12.0768C18.1217 11.5922 19.1187 11.6263 20.0726 11.9284C21.0265 12.2306 22.0311 12.8261 23.0268 13.6185Z" fill="#61DAFB"/>
<path fill-rule="evenodd" clip-rule="evenodd" d="M30.6003 14.7385C30.4503 14.0516 30.1743 13.6951 29.8796 13.5284C29.5849 13.3618 29.1315 13.3061 28.449 13.5223C27.7665 13.7385 26.9484 14.2015 26.0478 14.9181C24.2515 16.3476 22.2711 18.6712 20.5679 21.5597C18.8647 24.4483 17.7999 27.2895 17.4337 29.5275C17.2501 30.6495 17.2497 31.5746 17.3997 32.2615C17.5497 32.9484 17.8257 33.305 18.1205 33.4716C18.4152 33.6382 18.8685 33.6939 19.551 33.4777C20.2336 33.2615 21.0516 32.7986 21.9522 32.0819C23.7485 30.6524 25.729 28.3288 27.4322 25.4403C29.1354 22.5517 30.2002 19.7105 30.5664 17.4726C30.75 16.3505 30.7504 15.4254 30.6003 14.7385ZM32.2531 17.734C31.8461 20.2212 30.691 23.2566 28.9106 26.2761C27.1302 29.2955 25.0231 31.7928 23.0268 33.3815C22.0311 34.1739 21.0266 34.7694 20.0726 35.0716C19.1187 35.3737 18.1217 35.4078 17.2645 34.9232C16.4073 34.4386 15.939 33.5762 15.7292 32.6161C15.5195 31.6562 15.544 30.5066 15.747 29.266C16.1539 26.7788 17.3091 23.7434 19.0895 20.724C20.8698 17.7045 22.9769 15.2072 24.9732 13.6185C25.969 12.8261 26.9735 12.2306 27.9274 11.9285C28.8814 11.6263 29.8784 11.5922 30.7355 12.0768C31.5927 12.5614 32.0611 13.4238 32.2708 14.3839C32.4805 15.3439 32.4561 16.4934 32.2531 17.734Z" fill="#61DAFB"/>
</svg>
